<svg xmlns="http://www.w3.org/2000/svg" version="1.1" xmlns:xlink="http://www.w3.org/1999/xlink" xmlns:svgjs="http://svgjs.com/svgjs" width="512" height="512" x="0" y="0" viewBox="0 0 24 24" style="enable-background:new 0 0 512 512" xml:space="preserve" class=""><g><linearGradient id="a" x1="1" x2="23" y1="12" y2="12" gradientUnits="userSpaceOnUse"><stop offset="0" stop-color="#068FFF"></stop><stop offset="1" stop-color="#068FFF"></stop></linearGradient><path fill="url(#a)" d="M11.5 17H18c.6 0 1-.4 1-1s-.4-1-1-1h-6.5c-.6 0-1 .4-1 1s.4 1 1 1zm-6.3-1.3c.2.2.5.3.8.3.2 0 .5-.1.6-.1l3.5-3c.2-.2.3-.5.3-.8s-.1-.6-.3-.8l-3.5-3c-.4-.4-1-.3-1.4.1s-.3 1 .1 1.4L8 12l-2.7 2.3c-.4.4-.5 1-.1 1.4zM21 3H3c-1.1 0-2 .9-2 2v14c0 1.1.9 2 2 2h18c1.1 0 2-.9 2-2V5c0-1.1-.9-2-2-2zm0 16H3V5h18z" data-original="url(#a)" class=""></path></g></svg>